<svg width="26" height="21" viewBox="0 0 26 21" fill="none" xmlns="http://www.w3.org/2000/svg">
<path d="M20.0833 7.5H17.25V5.5C17.25 4.43913 16.8022 3.42172 16.0052 2.67157C15.2082 1.92143 14.1272 1.5 13 1.5C11.8728 1.5 10.7918 1.92143 9.9948 2.67157C9.19777 3.42172 8.75 4.43913 8.75 5.5V7.5H5.91667C5.54094 7.5 5.18061 7.64048 4.91493 7.89052C4.64926 8.14057 4.5 8.47971 4.5 8.83333V18.1667C4.5 18.5203 4.64926 18.8594 4.91493 19.1095C5.18061 19.3595 5.54094 19.5 5.91667 19.5H20.0833C20.4591 19.5 20.8194 19.3595 21.0851 19.1095C21.3507 18.8594 21.5 18.5203 21.5 18.1667V8.83333C21.5 8.47971 21.3507 8.14057 21.0851 7.89052C20.8194 7.64048 20.4591 7.5 20.0833 7.5ZM10.1667 5.5C10.1667 4.79276 10.4652 4.11448 10.9965 3.61438C11.5279 3.11428 12.2486 2.83333 13 2.83333C13.7514 2.83333 14.4721 3.11428 15.0035 3.61438C15.5348 4.11448 15.8333 4.79276 15.8333 5.5V7.5H10.1667V5.5ZM20.0833 18.1667H5.91667V8.83333H20.0833V18.1667ZM14.0625 13.5C14.0625 13.6978 14.0002 13.8911 13.8834 14.0556C13.7667 14.22 13.6007 14.3482 13.4066 14.4239C13.2125 14.4996 12.9988 14.5194 12.7927 14.4808C12.5866 14.4422 12.3973 14.347 12.2487 14.2071C12.1001 14.0673 11.9989 13.8891 11.9579 13.6951C11.9169 13.5011 11.938 13.3 12.0184 13.1173C12.0988 12.9346 12.235 12.7784 12.4097 12.6685C12.5844 12.5587 12.7899 12.5 13 12.5C13.2818 12.5 13.552 12.6054 13.7513 12.7929C13.9506 12.9804 14.0625 13.2348 14.0625 13.5Z" fill="white"/>
</svg>
