<svg width="21" height="15" viewBox="0 0 21 15" fill="none" xmlns="http://www.w3.org/2000/svg">
<path d="M19.9865 8.65748C19.9182 8.70868 19.8405 8.74593 19.7579 8.76711C19.6752 8.78829 19.5892 8.79298 19.5047 8.78091C19.4202 8.76884 19.3389 8.74025 19.2655 8.69677C19.1921 8.6533 19.1279 8.59578 19.0767 8.52751C18.6851 8.00104 18.1752 7.57389 17.5883 7.28043C17.0014 6.98698 16.3538 6.83543 15.6976 6.83797C15.5699 6.83796 15.4449 6.80027 15.3384 6.72962C15.232 6.65897 15.1487 6.5585 15.099 6.44077C15.0653 6.36082 15.0479 6.27492 15.0479 6.18815C15.0479 6.10137 15.0653 6.01548 15.099 5.93553C15.1487 5.8178 15.232 5.71732 15.3384 5.64667C15.4449 5.57602 15.5699 5.53834 15.6976 5.53832C16.0623 5.53829 16.4195 5.43601 16.7289 5.24309C17.0383 5.05018 17.2874 4.77436 17.4479 4.44698C17.6084 4.11959 17.6739 3.75376 17.6369 3.39103C17.5999 3.02831 17.4619 2.68322 17.2386 2.39498C17.0153 2.10675 16.7157 1.8869 16.3737 1.76043C16.0317 1.63395 15.6612 1.60591 15.304 1.6795C14.9469 1.75308 14.6176 1.92534 14.3535 2.1767C14.0894 2.42806 13.9011 2.74846 13.8099 3.10149C13.7886 3.18416 13.7512 3.26181 13.6998 3.33003C13.6485 3.39824 13.5842 3.45567 13.5107 3.49904C13.4371 3.54241 13.3558 3.57087 13.2712 3.5828C13.1867 3.59472 13.1006 3.58988 13.0179 3.56855C12.9353 3.54721 12.8576 3.50981 12.7894 3.45846C12.7212 3.40711 12.6638 3.34283 12.6204 3.26929C12.577 3.19575 12.5486 3.11439 12.5366 3.02985C12.5247 2.94531 12.5295 2.85924 12.5509 2.77658C12.6774 2.28703 12.9164 1.83376 13.2489 1.45285C13.5815 1.07193 13.9983 0.773879 14.4663 0.582406C14.9342 0.390934 15.4405 0.311326 15.9446 0.349916C16.4488 0.388506 16.937 0.54423 17.3704 0.804696C17.8037 1.06516 18.1703 1.42318 18.441 1.85027C18.7117 2.27735 18.879 2.76172 18.9295 3.26482C18.98 3.76792 18.9124 4.27587 18.7321 4.74826C18.5518 5.22065 18.2637 5.64443 17.8908 5.98589C18.7744 6.36847 19.5425 6.97558 20.1189 7.74691C20.1701 7.81535 20.2073 7.89322 20.2283 7.97606C20.2494 8.0589 20.2539 8.14508 20.2416 8.22966C20.2293 8.31425 20.2004 8.39557 20.1567 8.46898C20.1129 8.5424 20.055 8.60645 19.9865 8.65748ZM15.6099 13.6611C15.6569 13.7351 15.6885 13.8178 15.7027 13.9043C15.717 13.9907 15.7135 14.0792 15.6927 14.1643C15.6718 14.2495 15.634 14.3295 15.5814 14.3996C15.5288 14.4697 15.4626 14.5285 15.3867 14.5723C15.3108 14.6162 15.2269 14.6442 15.1399 14.6548C15.0529 14.6654 14.9646 14.6582 14.8805 14.6338C14.7963 14.6094 14.7179 14.5682 14.6501 14.5127C14.5823 14.4572 14.5264 14.3886 14.4857 14.3109C14.0764 13.6178 13.4934 13.0434 12.7943 12.6443C12.0951 12.2453 11.3041 12.0354 10.4991 12.0354C9.69407 12.0354 8.90298 12.2453 8.20386 12.6443C7.50474 13.0434 6.92175 13.6178 6.51239 14.3109C6.47177 14.3886 6.41586 14.4572 6.34802 14.5127C6.28018 14.5682 6.20182 14.6094 6.11765 14.6338C6.03348 14.6582 5.94524 14.6654 5.85824 14.6548C5.77124 14.6442 5.68727 14.6162 5.6114 14.5723C5.53552 14.5285 5.4693 14.4697 5.41672 14.3996C5.36414 14.3295 5.32628 14.2495 5.30543 14.1643C5.28458 14.0792 5.28116 13.9907 5.29539 13.9043C5.30961 13.8178 5.34118 13.7351 5.3882 13.6611C6.0182 12.5787 6.9788 11.7268 8.12883 11.2308C7.48171 10.7353 7.00612 10.0495 6.76891 9.2698C6.5317 8.49007 6.5448 7.65561 6.80637 6.88371C7.06794 6.11181 7.56482 5.44128 8.22717 4.96638C8.88953 4.49148 9.68405 4.23607 10.4991 4.23607C11.3141 4.23607 12.1086 4.49148 12.7709 4.96638C13.4333 5.44128 13.9302 6.11181 14.1917 6.88371C14.4533 7.65561 14.4664 8.49007 14.2292 9.2698C13.992 10.0495 13.5164 10.7353 12.8693 11.2308C14.0193 11.7268 14.9799 12.5787 15.6099 13.6611ZM10.4991 10.7369C11.0132 10.7369 11.5157 10.5845 11.9431 10.2989C12.3706 10.0132 12.7038 9.60728 12.9005 9.13232C13.0972 8.65736 13.1487 8.13473 13.0484 7.63052C12.9481 7.12631 12.7006 6.66316 12.337 6.29964C11.9735 5.93612 11.5104 5.68856 11.0062 5.58827C10.5019 5.48797 9.97931 5.53945 9.50435 5.73618C9.0294 5.93292 8.62344 6.26608 8.33783 6.69353C8.05221 7.12098 7.89977 7.62353 7.89977 8.13762C7.89977 8.82699 8.17362 9.48813 8.66108 9.9756C9.14854 10.4631 9.80968 10.7369 10.4991 10.7369ZM5.9503 6.18815C5.9503 6.0158 5.88183 5.85052 5.75997 5.72865C5.6381 5.60679 5.47282 5.53832 5.30047 5.53832C4.93586 5.53829 4.57857 5.43601 4.26918 5.24309C3.95979 5.05018 3.7107 4.77436 3.5502 4.44698C3.38971 4.11959 3.32424 3.75376 3.36124 3.39103C3.39824 3.02831 3.53622 2.68322 3.75951 2.39498C3.98279 2.10675 4.28244 1.8869 4.62441 1.76043C4.96638 1.63395 5.33697 1.60591 5.69408 1.6795C6.05118 1.75308 6.3805 1.92534 6.64461 2.1767C6.90873 2.42806 7.09706 2.74846 7.18821 3.10149C7.2313 3.26844 7.33894 3.41145 7.48747 3.49904C7.63599 3.58663 7.81322 3.61163 7.98018 3.56855C8.14714 3.52546 8.29015 3.41782 8.37774 3.26929C8.46533 3.12077 8.49033 2.94353 8.44724 2.77658C8.32073 2.28703 8.0817 1.83376 7.74918 1.45285C7.41666 1.07193 6.99983 0.773879 6.53185 0.582406C6.06387 0.390934 5.55767 0.311326 5.05351 0.349916C4.54935 0.388506 4.06115 0.54423 3.62777 0.804696C3.19438 1.06516 2.82777 1.42318 2.5571 1.85027C2.28643 2.27735 2.11917 2.76172 2.06863 3.26482C2.0181 3.76792 2.08568 4.27587 2.266 4.74826C2.44632 5.22065 2.7344 5.64443 3.10732 5.98589C2.2246 6.36883 1.45735 6.97592 0.881676 7.74691C0.778162 7.88479 0.733658 8.05814 0.757955 8.22882C0.782252 8.39951 0.873359 8.55356 1.01123 8.65707C1.14911 8.76058 1.32246 8.80509 1.49315 8.78079C1.66383 8.75649 1.81788 8.66539 1.92139 8.52751C2.31306 8.00104 2.82287 7.57389 3.40978 7.28043C3.99669 6.98698 4.6443 6.83543 5.30047 6.83797C5.47282 6.83797 5.6381 6.76951 5.75997 6.64764C5.88183 6.52578 5.9503 6.36049 5.9503 6.18815Z" fill="white"/>
</svg>
