<svg width="20" height="23" viewBox="0 0 20 23" fill="none" xmlns="http://www.w3.org/2000/svg">
<g clip-path="url(#clip0_49_606)">
<path d="M5.56667 9.71215C5.56667 9.52278 5.63339 9.34117 5.75217 9.20726C5.87094 9.07336 6.03203 8.99813 6.2 8.99813H7.46667V7.5701C7.46667 7.38073 7.53339 7.19911 7.65216 7.06521C7.77094 6.9313 7.93203 6.85608 8.1 6.85608C8.26797 6.85608 8.42906 6.9313 8.54783 7.06521C8.66661 7.19911 8.73333 7.38073 8.73333 7.5701V8.99813H10C10.168 8.99813 10.3291 9.07336 10.4478 9.20726C10.5666 9.34117 10.6333 9.52278 10.6333 9.71215C10.6333 9.90152 10.5666 10.0831 10.4478 10.217C10.3291 10.3509 10.168 10.4262 10 10.4262H8.73333V11.8542C8.73333 12.0436 8.66661 12.2252 8.54783 12.3591C8.42906 12.493 8.26797 12.5682 8.1 12.5682C7.93203 12.5682 7.77094 12.493 7.65216 12.3591C7.53339 12.2252 7.46667 12.0436 7.46667 11.8542V10.4262H6.2C6.03203 10.4262 5.87094 10.3509 5.75217 10.217C5.63339 10.0831 5.56667 9.90152 5.56667 9.71215ZM19.5 9.71215V15.4243C19.5 15.803 19.3665 16.1663 19.129 16.4341C18.8915 16.7019 18.5693 16.8523 18.2333 16.8523H16.8875C16.748 17.4667 16.4311 18.0112 15.9867 18.4001C15.5423 18.7889 14.9958 19 14.4333 19C13.8708 19 13.3243 18.7889 12.88 18.4001C12.4356 18.0112 12.1187 17.4667 11.9792 16.8523H8.02083C7.88131 17.4667 7.56439 18.0112 7.12004 18.4001C6.67568 18.7889 6.12917 19 5.56667 19C5.00416 19 4.45765 18.7889 4.0133 18.4001C3.56894 18.0112 3.25202 17.4667 3.1125 16.8523H1.76667C1.43073 16.8523 1.10854 16.7019 0.870998 16.4341C0.633452 16.1663 0.5 15.803 0.5 15.4243V5.42804C0.5 5.0493 0.633452 4.68607 0.870998 4.41826C1.10854 4.15045 1.43073 4 1.76667 4H13.8C13.968 4 14.1291 4.07523 14.2478 4.20913C14.3666 4.34304 14.4333 4.52465 14.4333 4.71402V5.42804H17.1709C17.4243 5.42712 17.6721 5.5123 17.8819 5.67246C18.0918 5.83262 18.254 6.06033 18.3473 6.32592L19.4557 9.44975C19.4851 9.53325 19.5001 9.6223 19.5 9.71215ZM14.4333 6.85608V8.99813H17.9309L17.1709 6.85608H14.4333ZM1.76667 15.4243H3.1125C3.25202 14.81 3.56894 14.2654 4.0133 13.8766C4.45765 13.4877 5.00416 13.2766 5.56667 13.2766C6.12917 13.2766 6.67568 13.4877 7.12004 13.8766C7.56439 14.2654 7.88131 14.81 8.02083 15.4243H11.9792C12.0641 15.0574 12.2128 14.7131 12.4167 14.4114C12.6205 14.1098 12.8754 13.8567 13.1667 13.6669V5.42804H1.76667V15.4243ZM6.83333 16.1383C6.83333 15.8559 6.75904 15.5798 6.61986 15.3449C6.48068 15.1101 6.28285 14.9271 6.0514 14.819C5.81995 14.7109 5.56526 14.6826 5.31955 14.7377C5.07384 14.7928 4.84814 14.9288 4.671 15.1285C4.49385 15.3283 4.37321 15.5827 4.32434 15.8597C4.27546 16.1367 4.30055 16.4239 4.39642 16.6848C4.49229 16.9458 4.65464 17.1688 4.86294 17.3257C5.07125 17.4826 5.31614 17.5664 5.56667 17.5664C5.90261 17.5664 6.22479 17.4159 6.46233 17.1481C6.69988 16.8803 6.83333 16.5171 6.83333 16.1383ZM15.7 16.1383C15.7 15.8559 15.6257 15.5798 15.4865 15.3449C15.3473 15.1101 15.1495 14.9271 14.9181 14.819C14.6866 14.7109 14.4319 14.6826 14.1862 14.7377C13.9405 14.7928 13.7148 14.9288 13.5377 15.1285C13.3605 15.3283 13.2399 15.5827 13.191 15.8597C13.1421 16.1367 13.1672 16.4239 13.2631 16.6848C13.359 16.9458 13.5213 17.1688 13.7296 17.3257C13.9379 17.4826 14.1828 17.5664 14.4333 17.5664C14.7693 17.5664 15.0915 17.4159 15.329 17.1481C15.5665 16.8803 15.7 16.5171 15.7 16.1383ZM18.2333 15.4243V10.4262H14.4333V13.2822C14.995 13.2828 15.5406 13.4935 15.9847 13.8811C16.4288 14.2687 16.7463 14.8114 16.8875 15.4243H18.2333Z" fill="white"/>
</g>
<defs>
<clipPath id="clip0_49_606">
<rect width="19" height="23" fill="white" transform="translate(0.5)"/>
</clipPath>
</defs>
</svg>
