<svg width="20" height="19" viewBox="0 0 20 19" fill="none" xmlns="http://www.w3.org/2000/svg">
<g clip-path="url(#clip0_49_537)">
<path d="M18.2543 2.95499H1.74571C1.38085 2.95499 1.03093 3.10822 0.772932 3.38098C0.514936 3.65374 0.369995 4.02369 0.369995 4.40943V10.9544C0.369995 11.3402 0.514936 11.7101 0.772932 11.9829C1.03093 12.2556 1.38085 12.4089 1.74571 12.4089H3.80928V15.3178C3.80928 15.5106 3.88175 15.6956 4.01075 15.832C4.13975 15.9684 4.31471 16.045 4.49714 16.045C4.67957 16.045 4.85453 15.9684 4.98353 15.832C5.11252 15.6956 5.185 15.5106 5.185 15.3178V12.4089H14.815V15.3178C14.815 15.5106 14.8875 15.6956 15.0165 15.832C15.1455 15.9684 15.3204 16.045 15.5029 16.045C15.6853 16.045 15.8602 15.9684 15.9892 15.832C16.1182 15.6956 16.1907 15.5106 16.1907 15.3178V12.4089H18.2543C18.6191 12.4089 18.9691 12.2556 19.2271 11.9829C19.4851 11.7101 19.63 11.3402 19.63 10.9544V4.40943C19.63 4.02369 19.4851 3.65374 19.2271 3.38098C18.9691 3.10822 18.6191 2.95499 18.2543 2.95499ZM18.2543 8.83549L14.0678 4.40943H18.2543V8.83549ZM5.93218 4.40943L12.1229 10.9544H7.8771L1.74571 4.47215V4.40943H5.93218ZM1.74571 6.52837L5.93218 10.9544H1.74571V6.52837ZM18.2543 10.9544H14.0678L7.8771 4.40943H12.1229L18.2543 10.8926V10.9544Z" fill="white"/>
</g>
<defs>
<clipPath id="clip0_49_537">
<rect width="19.26" height="17.6862" fill="white" transform="translate(0.369995 0.65686)"/>
</clipPath>
</defs>
</svg>
