<?xml version="1.0" encoding="UTF-8"?>
<svg id="Camada_2" data-name="Camada 2" xmlns="http://www.w3.org/2000/svg" viewBox="0 0 35.52 35.51">
  <defs>
    <style>
      .cls-1 {
        fill: #8d2319;
      }

      .cls-2 {
        fill: #444548;
        fill-rule: evenodd;
      }
    </style>
  </defs>
  <g id="Camada_1-2" data-name="Camada 1">
    <g id="Group_8" data-name="Group 8">
      <path id="Path_32" data-name="Path 32" class="cls-1" d="m17.72,0C7.22,0-1.08,9.1.12,19.8c.9,8.1,7.5,14.7,15.6,15.6,10.7,1.2,19.8-7.2,19.8-17.6C35.52,8,27.62,0,17.72,0h.5m9.2,22.3l-4.2,3c-.1.1-.4.3-.5.3-4.1,2.6-9.7,1.4-12.3-2.8-2.6-4.1-1.4-9.7,2.8-12.3,2.9-1.8,6.6-1.9,9.5,0,0,0,.4.2.4.3l4.3,3,4.6,3.2c.5.3.8,1,.5,1.5-.1.2-.3.4-.5.5l-4.6,3.3Z"/>
      <g id="Component_4_50" data-name="Component 4 50">
        <path id="Path_33" data-name="Path 33" class="cls-2" d="m22.22,23.16c-.5.4-1,.1-1-.7v-8.9c0-.8.4-1.1,1-.7l3.1,2.2,3.1,2.2c.4.2.5.7.3,1.1l-.3.3-3.1,2.2-3.1,2.3Z"/>
      </g>
    </g>
  </g>
</svg>